<?xml version="1.0" encoding="utf-8"?>
<!-- Generator: Adobe Illustrator 17.0.1, SVG Export Plug-In . SVG Version: 6.00 Build 0)  -->
<!DOCTYPE svg PUBLIC "-//W3C//DTD SVG 1.1//EN" "http://www.w3.org/Graphics/SVG/1.1/DTD/svg11.dtd">
<svg version="1.1" id="Слой_1" xmlns="http://www.w3.org/2000/svg" xmlns:xlink="http://www.w3.org/1999/xlink" x="0px" y="0px"
	 width="127.2861328px" height="38.4296875px" viewBox="0 0 127.2861328 38.4296875"
	 enable-background="new 0 0 127.2861328 38.4296875" xml:space="preserve">
<g>
	<path fill="#FFFFFF" d="M2.86,1.37h5.62v24.77H2.86V1.37z"/>
	<path fill="#FFFFFF" d="M13.97,1.37h5.68l7.14,14.29l-0.2-2.67V1.37h5.62v24.77h-5.77l-7-14.06l0.15,3.08v10.98h-5.62V1.37z"/>
	<path fill="#FFFFFF" d="M37.54,1.37h11.37v5.31h-5.75v4.53h5.07v5.14h-5.07v9.8h-5.62V1.37z"/>
	<path fill="#FFFFFF" d="M52.79,1.37h5.62v24.77h-5.62V1.37z"/>
	<path fill="#FFFFFF" d="M63.9,1.37h5.68l7.14,14.29l-0.2-2.67V1.37h5.62v24.77h-5.77l-7-14.06l0.15,3.08v10.98H63.9V1.37z"/>
	<path fill="#FFFFFF" d="M87.67,1.37h5.62v24.77h-5.62V1.37z"/>
</g>
<g>
	<g>
		<linearGradient id="SVGID_1_" gradientUnits="userSpaceOnUse" x1="76.1748047" y1="19.963623" x2="126.2861328" y2="19.963623">
			<stop  offset="0" style="stop-color:#FF55A5"/>
			<stop  offset="0.5934188" style="stop-color:#FF5779"/>
			<stop  offset="1" style="stop-color:#FF5860"/>
		</linearGradient>
		<path fill="url(#SVGID_1_)" d="M97.99,15.31h8.55v4.64h-8.55V15.31z"/>
		<linearGradient id="SVGID_2_" gradientUnits="userSpaceOnUse" x1="76.1748047" y1="19.963623" x2="126.2861328" y2="19.963623">
			<stop  offset="0" style="stop-color:#FF55A5"/>
			<stop  offset="0.5934188" style="stop-color:#FF5779"/>
			<stop  offset="1" style="stop-color:#FF5860"/>
		</linearGradient>
		<path fill="url(#SVGID_2_)" d="M120.38,12.62c1.41,0.61,2.5,1.53,3.27,2.76c0.77,1.24,1.16,2.63,1.16,4.19c0,2.19-0.67,3.94-2.02,5.25
		c-1.35,1.31-3.15,1.97-5.42,1.97c-2.31,0-4.14-0.65-5.48-1.95c-1.34-1.3-2.01-3.06-2.01-5.27c0-0.56,0.04-1.08,0.11-1.57
		c0.07-0.49,0.19-0.95,0.34-1.37c0.15-0.43,0.35-0.83,0.58-1.21c0.23-0.38,0.51-0.73,0.83-1.05c0.32-0.32,0.69-0.62,1.11-0.9
		s0.87-0.55,1.33-0.83v-0.04h-0.04c0-0.02-0.01-0.04-0.04-0.04c0-0.02-0.01-0.04-0.04-0.04c-0.74-0.35-1.36-0.73-1.85-1.15
		c-0.49-0.42-0.91-1.02-1.25-1.79c-0.35-0.77-0.52-1.67-0.52-2.68c0-1.77,0.66-3.24,1.97-4.43c1.31-1.18,2.95-1.77,4.92-1.77
		c2,0,3.64,0.6,4.92,1.8c1.27,1.2,1.91,2.74,1.91,4.62c0,1.24-0.31,2.29-0.92,3.15C122.64,11.16,121.68,11.94,120.38,12.62z
		 M119.34,19.11c0-2.42-0.67-3.64-2-3.64c-1.4,0-2.1,1.11-2.1,3.34c0,2.38,0.71,3.56,2.13,3.56
		C118.69,22.38,119.34,21.29,119.34,19.11z M118.75,7.94c0-1.79-0.47-2.69-1.41-2.69c-0.96,0-1.45,0.8-1.45,2.39
		c0,0.96,0.11,1.65,0.34,2.05c0.23,0.4,0.61,0.6,1.14,0.6C118.29,10.3,118.75,9.51,118.75,7.94z"/>
	</g>
</g>
<g>
</g>
<g>
</g>
<g>
</g>
<g>
</g>
<g>
</g>
<g>
</g>
<g>
</g>
<g>
</g>
<g>
</g>
<g>
</g>
<g>
</g>
<g>
</g>
<g>
</g>
<g>
</g>
<g>
</g>
</svg>
